<?xml version="1.0" encoding="utf-8"?>
<!-- Generator: Adobe Illustrator 23.0.1, SVG Export Plug-In . SVG Version: 6.00 Build 0)  -->
<svg version="1.1" id="Ebene_1" xmlns="http://www.w3.org/2000/svg" xmlns:xlink="http://www.w3.org/1999/xlink" x="0px" y="0px"
	 viewBox="0 0 67 70" style="enable-background:new 0 0 67 70;" xml:space="preserve">
<title>Icons</title>
<g>
	<path d="M19.7,49.6c-0.4,0-0.7,0.3-0.7,0.7c0,0.4,0.3,0.7,0.7,0.7c0.4,0,0.7-0.3,0.7-0.7C20.4,50,20.1,49.6,19.7,49.6
		C19.7,49.6,19.7,49.6,19.7,49.6z"/>
	<path d="M42.1,48.5c-0.4,0-0.7,0.3-0.7,0.7c0,0.4,0.3,0.7,0.7,0.7c0.4,0,0.7-0.3,0.7-0.7c0,0,0,0,0,0
		C42.8,48.8,42.5,48.5,42.1,48.5z"/>
	<path d="M12.6,59.1c-1.7,0-3.1,1.4-3.1,3.1c0,1.7,1.4,3.1,3.1,3.1c1.7,0,3.1-1.4,3.1-3.1C15.7,60.5,14.3,59.1,12.6,59.1
		C12.6,59.1,12.6,59.1,12.6,59.1z M12.6,63.9c-0.9,0-1.6-0.7-1.6-1.6c0-0.9,0.7-1.6,1.6-1.6c0.9,0,1.6,0.7,1.6,1.6c0,0,0,0,0,0
		C14.2,63.1,13.5,63.8,12.6,63.9L12.6,63.9z"/>
	<path d="M44.8,23.7l-3.5-2.1c-0.3-0.2-0.8-0.1-1,0.2c-0.1,0.2-0.1,0.4,0,0.5c0,0.2,0.2,0.3,0.3,0.4l0,0l3.6,2.1
		c0.4,0.2,0.8,0.1,1-0.3C45.4,24.3,45.2,23.9,44.8,23.7L44.8,23.7z"/>
	<path d="M32,36.1c-0.2,0.3-0.1,0.8,0.3,1l3.5,2.1c0.3,0.2,0.8,0.1,1-0.3c0.2-0.3,0.1-0.8-0.3-1L33,35.8c-0.1-0.1-0.2-0.1-0.4-0.1
		h-0.2C32.3,35.8,32.1,35.9,32,36.1z"/>
	<path d="M14.9,16.6h-2.4c-0.4,0-0.7,0.3-0.7,0.7c0,0.4,0.3,0.7,0.7,0.7l0,0h2.4c0.4,0,0.7-0.3,0.7-0.7
		C15.7,16.9,15.3,16.6,14.9,16.6z"/>
	<path d="M14.9,33.1h-2.4c-0.4,0.1-0.7,0.4-0.6,0.8c0,0.3,0.3,0.6,0.6,0.6h2.4c0.4-0.1,0.7-0.4,0.6-0.8
		C15.5,33.4,15.3,33.1,14.9,33.1z"/>
	<path d="M14.9,49.6h-2.4c-0.4,0-0.7,0.3-0.7,0.7c0,0.4,0.3,0.7,0.7,0.7h2.4c0.4,0,0.7-0.3,0.7-0.7C15.6,50,15.3,49.6,14.9,49.6z"/>
	<path d="M19.7,33.1c-0.4,0-0.7,0.3-0.7,0.7c0,0.4,0.3,0.7,0.7,0.7c0.4,0,0.7-0.3,0.7-0.7c0,0,0,0,0,0
		C20.4,33.4,20.1,33.1,19.7,33.1z"/>
	<path d="M19.7,16.6c-0.4,0-0.7,0.3-0.7,0.7c0,0.4,0.3,0.7,0.7,0.7c0.4,0,0.7-0.3,0.7-0.7C20.4,16.9,20.1,16.6,19.7,16.6z"/>
	<path d="M52.7,37.8c-0.4,0-0.7,0.3-0.7,0.7c0,0.4,0.3,0.7,0.7,0.7c0,0,0,0,0,0c0.4,0,0.7-0.3,0.7-0.7
		C53.4,38.1,53.1,37.8,52.7,37.8z"/>
	<path d="M19.7,0H5.4C2.4,0,0,2.4,0,5.4v59.1c0,3,2.4,5.4,5.4,5.4h21.3c2-0.2,3.8-1.2,5.2-2.6c0.3-0.3,32.9-32.9,33.1-33.2
		c2.7-3.1,2.5-7.7-0.4-10.6l-4.5-4.4c-0.3-0.3-0.7-0.3-1,0c-0.1,0.1-0.2,0.3-0.2,0.5c0,0.2,0.1,0.4,0.2,0.5l4.4,4.4
		c2,2,2.4,5.1,1,7.6l-0.3,0.5l-10.9-11l1.9-3.3c1.5-2.6,0.6-5.9-1.9-7.4L41.5,4c-2.6-1.5-5.9-0.7-7.4,1.9c0,0,0,0,0,0l-8.9,15.4
		v-1.7V5.4C25.1,2.4,22.7,0,19.7,0C19.7,0,19.7,0,19.7,0z M1.7,4.1c0.6-1.6,2-2.6,3.7-2.7h14.2c1.7,0,3.2,1.1,3.8,2.7l0.2,0.6H1.5
		L1.7,4.1z M1.5,6.2h22.2v15.1H1.5V6.2z M1.5,22.7h22.2v15.1H1.5V22.7z M1.5,39.3h22.2v15.1H1.5V39.3z M19.7,68.5H5.4
		c-2.2,0-3.9-1.8-3.9-4v-8.7h22.2v8.7C23.7,66.8,21.9,68.6,19.7,68.5C19.7,68.6,19.7,68.6,19.7,68.5z M30.9,66.4
		c-1.1,1.2-2.6,1.9-4.2,2.2h-3.3l0.6-0.7c0.7-0.9,1.1-2.1,1.1-3.3V38.6l12.6,7.5v0.1L28.5,62c-0.2,0.3-0.1,0.8,0.2,1c0,0,0,0,0,0
		c0.3,0.2,0.8,0.1,1-0.3l6.5-11.3l4.8,4.8L30.9,66.4z M42.1,55.2L37,50.1v-0.1L44,38l7.6,7.6L42.1,55.2z M63.5,33.8L52.7,44.6
		l-7.9-7.9v-0.1L52.6,23L63.5,33.8z M35.6,6.2c0.5-0.7,1.3-1.2,2.1-1.4l0,0c1-0.3,2.1-0.1,3,0.4l11.9,7c1.8,1,2.5,3.2,1.7,5.1
		l-0.2,0.5L54,17.8L35.3,6.6L35.6,6.2z M27.9,19.3l6.6-11.4l0.1,0.1l18.7,11l-0.1,0.1l-6.6,11.4h-0.1L27.9,19.5L27.9,19.3z
		 M27.1,20.6L46,31.7l-0.1,0.1l-7.4,12.9l-0.1-0.1l-13.3-7.8V24.2L27.1,20.6z"/>
</g>
</svg>
