<?xml version="1.0" encoding="utf-8"?>
<!-- Generator: Adobe Illustrator 23.0.1, SVG Export Plug-In . SVG Version: 6.00 Build 0)  -->
<svg version="1.1" id="Ebene_1" xmlns="http://www.w3.org/2000/svg" xmlns:xlink="http://www.w3.org/1999/xlink" x="0px" y="0px"
	 viewBox="0 0 67 70" style="enable-background:new 0 0 67 70;" xml:space="preserve">
<title>Icons</title>
<g>
	<path d="M33.5,70l7.3-13V54h22.9V39.7h-5.3v-0.1c-0.3-10.7-7.4-19.9-17.6-23.2h-0.1V4c0-2.2-1.8-4-4-4h-6.7c-2.2,0-4,1.8-4,4v12.4
		h-0.1C15.9,19.6,8.9,28.9,8.5,39.6v0.1H3.2v14.3h23V57L33.5,70z M35.1,64.5h-3.3l-4.4-7.8h0.1c0.4-0.3,0.9-0.4,1.5-0.4
		c0.6,0,1.1,0.2,1.6,0.6c0.4,0.3,1,0.3,1.4,0c0.9-0.7,2.2-0.7,3.1,0c0.4,0.3,1,0.3,1.4,0c0.8-0.7,2-0.8,2.9-0.2h0.1L35.1,64.5z
		 M27.5,55.2V54h3.1v1.3h-0.1c-0.9-0.4-1.9-0.4-2.9-0.1H27.5z M31.9,55.3V54h3.2v1.2h-0.1c-0.9-0.4-2-0.3-2.9,0.1L31.9,55.3z
		 M36.4,54h3.1v1.2h-0.1c-0.9-0.3-2-0.3-2.9,0.2l-0.1,0.1V54z M40.9,17.8H41l1.1,0.4h0.1l-1.3,3.1L40.9,17.8z M40.9,30.6l0.2,0.1
		c2.7,2.1,4.4,5.4,4.7,8.8v0.1h-4.9L40.9,30.6z M27.5,4c0-1.5,1.2-2.7,2.7-2.7h6.7c1.5,0,2.7,1.2,2.7,2.7v3H27.5V4z M27.5,12.3V11
		h12.1v1.3L27.5,12.3z M39.5,13.6v26.1h-3.1V13.6H39.5z M35.1,39.7h-3.2V13.6h3.2V39.7z M30.6,13.6v26.1h-3.1V13.6H30.6z M27.5,9.7
		V8.3h12.1v1.3H27.5z M25.4,18.1l0.7-0.2h0.1v2.6l-0.9-2.3L25.4,18.1z M25.1,47.2v5.4h-2.5v-2.5h-1.3v2.5h-2.5v-5.4h-1.3v5.4h-2.5
		v-2.5h-1.3v2.5h-2.5v-5.4H10v5.4H7.5v-2.5H6.2v2.5H4.5V41h5.3v-0.7c0-1.4,0.1-2.7,0.4-4v-0.1l2.6,0.5l0.3-1.3l-2.6-0.5v-0.1
		c0.3-1,0.6-2,1-3v-0.1h0.1l4.9,2.1l0.5-1.2l-5-2.1v-0.1c0.4-0.9,0.9-1.7,1.4-2.5v-0.1l2.2,1.5l0.7-1.1l-2.2-1.5v-0.1
		c0.7-0.9,1.4-1.7,2.2-2.4l0.1-0.1l3.8,3.8l0.9-0.9l-3.8-3.8l0.1-0.1c0.8-0.8,1.6-1.5,2.5-2.1l0.1-0.1l1.5,2.2l1.1-0.7L21,20.2h0.1
		c0.9-0.6,1.9-1.1,2.8-1.5H24l2.1,5h0.1v5.4l0,0c-3.8,2.5-6.1,6.7-6.1,11.2V41H47v-0.7c0-4.5-2.3-8.8-6.1-11.3l0,0v-5.5l0.4,0.2
		l2.1-5h0.1c0.8,0.4,1.7,0.9,2.4,1.4H46l-1.5,2.3l1.1,0.7l1.5-2.2l0.1,0.1c0.9,0.6,1.7,1.3,2.5,2l0.1,0.1l-3.8,3.8l0.9,0.9l3.8-3.8
		l0.1,0.1c0.7,0.8,1.4,1.7,2.1,2.6v0.1l-2.1,1.5l0.7,1.1l2.2-1.4V28c0.6,0.9,1.1,1.9,1.5,2.9v0.1l-5,2l0.5,1.2l5-2v0.1
		c0.3,0.9,0.6,1.8,0.8,2.7V35l-2.6,0.5l0.4,1.3l2.6-0.5v0.1c0.2,1.3,0.3,2.6,0.3,3.9V41h5.3v11.7h-1.8v-2.5h-1.3v2.5h-2.5v-5.4h-1.3
		v5.4h-2.4v-2.5h-1.3v2.5h-2.5v-5.4h-1.3v5.4h-2.5v-2.5h-1.3v2.5h-2.5v-5.4h-1.3v5.4h-2.5v-2.5h-1.3v2.5h-2.5v-5.4h-1.3v5.4h-2.5
		v-2.5H29v2.5h-2.5v-5.4H25.1z M26.2,39.7h-4.8v-0.1c0.2-3.5,1.9-6.7,4.7-8.8l0.2-0.1V39.7z"/>
	<rect x="3.1" y="21.7" transform="matrix(0.5614 -0.8276 0.8276 0.5614 -19.3081 14.2201)" width="1.3" height="7.2"/>
	<rect x="13.9" y="7.2" transform="matrix(0.8275 -0.5615 0.5615 0.8275 -3.5731 10.0328)" width="1.3" height="7.2"/>
	<rect x="59.7" y="24.7" transform="matrix(0.8276 -0.5614 0.5614 0.8276 -3.3085 39.866)" width="7.2" height="1.3"/>
	<rect x="48.8" y="10" transform="matrix(0.5593 -0.829 0.829 0.5593 14.2999 48.1325)" width="7.2" height="1.3"/>
</g>
</svg>
