<?xml version="1.0" encoding="utf-8"?>
<!-- Generator: Adobe Illustrator 23.0.1, SVG Export Plug-In . SVG Version: 6.00 Build 0)  -->
<svg version="1.1" id="Ebene_1" xmlns="http://www.w3.org/2000/svg" xmlns:xlink="http://www.w3.org/1999/xlink" x="0px" y="0px"
	 viewBox="0 0 70 70" style="enable-background:new 0 0 70 70;" xml:space="preserve">
<g>
	<title>Icons</title>
	<path d="M10.2,7H6.7C5.6,7,4.8,7.9,4.7,8.9v6.3C4.7,16,5.2,16.7,6,17l3.5,1.4c0.2,0.1,0.5,0.1,0.7,0.1c1.1,0,1.9-0.9,1.9-1.9V8.9
		C12.1,7.9,11.3,7,10.2,7C10.2,7,10.2,7,10.2,7z M10.7,17.3l-4.4-1.8v-7h4.4V17.3z"/>
	<path d="M52.2,18.1l0.1-0.2h0.1l4.4-1c0.5-0.2,1-0.5,1.2-1l0.1-0.2H61c1.1,0,1.9-0.9,1.9-1.9v-0.4h6.4c0.4,0,0.7-0.3,0.7-0.7
		s-0.3-0.7-0.7-0.7h-6.3v-0.4c0-1.1-0.9-1.9-1.9-1.9h-2.9L58,9.2c-0.3-0.5-0.7-0.8-1.2-1l-4.4-1l-0.1-0.2c-0.4-1.3-1.6-2.3-3-2.3h-7
		l-0.1-0.1c-0.6-0.7-1.4-1-2.3-1h-3.6c-0.2,0-0.4,0-0.6,0.1l-0.2,0.1l0,0l-5.1-3C29.7,0.2,28.9,0,28.2,0H17.6c-1.1,0-2.2,0.4-3,1.2
		l-0.3,0.3c-0.5,0.5-1.2,0.8-2,0.8h-8C2,2.3,0,4.2,0,6.6v11.9c0,1.7,1,3.2,2.5,3.9l5.6,2.5c1.3,0.6,2,2,1.6,3.3
		c-1.6,5.3-2.5,10.7-2.6,16.2v4.9c0,0.4-0.2,0.8-0.5,1.2l-2.2,2.2c-0.6,0.6-0.9,1.4-0.9,2.2v9.7C3.6,67.5,6,70,9,70h26.5
		c0.6,0,1.2-0.2,1.7-0.5l1.9-1.2c0.9-0.6,1.4-1.5,1.4-2.6v-3.9c0-0.6-0.2-1.3-0.6-1.8l-3-4.2c-1.7-2.4-4.4-3.8-7.4-3.8h-8
		c-1.3,0-2.4-1.1-2.4-2.4c0-0.2,0-0.4,0.1-0.6l3.6-12.7c0.5-1.7,2.1-2.9,3.8-2.9c1.1,0,1.9-0.9,1.9-1.9v-1.2c0-0.1,0-0.2-0.1-0.3
		c0,0-1.9-3.9,0.6-5.9l0.1-0.1h3.3c1.3,0,2.5-0.8,2.9-2.1l0.1-0.3h0.3h3.7c0.9,0,1.7-0.4,2.3-1l0.1-0.1h7
		C50.6,20.3,51.8,19.4,52.2,18.1z M58.2,10.9h3.3v3.2h-3.3V10.9z M52.3,8.7l4.2,0.9l0.1,0.1c0.1,0.1,0.2,0.3,0.2,0.5v4.5
		c0,0.1,0,0.2-0.1,0.3l-0.1,0.2l-4.3,1V8.7z M39,65.7c0,0.5-0.3,1.1-0.7,1.4l-1.9,1.2c-0.3,0.2-0.6,0.3-0.9,0.3H9c-2.2,0-4-1.8-4-4
		v-0.4h34V65.7z M29.6,53.5c2.4,0,4.7,1.2,6.1,3.2l3,4.2c0.2,0.3,0.3,0.6,0.3,0.9v0.9H5v-7.7c0-0.4,0.2-0.8,0.5-1.2l0.3-0.3
		L29.6,53.5z M27.1,30.3v0.1v1.4h-0.4c-1.6,0-3.2,0.7-4.2,2l-0.5,0.6l-0.3-0.7c-1-2.7-1.1-4.9-0.2-6.7c1.1-1.7,2.8-2.8,4.8-3.2
		l0.9-0.2l-0.4,0.8C26.2,26.4,26.3,28.5,27.1,30.3L27.1,30.3z M34.4,5c0,0.1,0,0.3,0,0.4v15.4c0,0.9-0.8,1.6-1.7,1.6c0,0,0,0,0,0h-6
		c-0.2,0-4.5,0.5-6.4,4c-1.4,2.5-1.1,5.9,0.9,9.9l0.1,0.1l0,0l-3.4,12.1c-0.3,0.9-0.2,1.9,0.3,2.8l0.3,0.6H7.4l0.6-0.7
		c0.4-0.5,0.7-1.2,0.7-1.8v-4.9c0.1-5.4,1-10.7,2.6-15.8c0.6-2.1-0.4-4.2-2.4-5.1l-5.6-2.5c-1-0.5-1.7-1.5-1.7-2.6V6.6
		c0-1.6,1.3-2.8,2.8-2.8h8c1.1,0,2.2-0.4,3-1.2l0.3-0.3c0.5-0.5,1.2-0.8,2-0.8h10.6c0.5,0,1,0.1,1.4,0.4l4.8,2.9V5z M41.4,18.4
		c0,0.9-0.7,1.6-1.6,1.6h-4.1v-3.2h1.6c0.4,0.1,0.8-0.2,0.8-0.6c0.1-0.4-0.2-0.8-0.6-0.8c-0.1,0-0.1,0-0.2,0h-1.6V9.7h1.6
		c0.4,0.1,0.8-0.2,0.8-0.6c0.1-0.4-0.2-0.8-0.6-0.8c-0.1,0-0.1,0-0.2,0h-1.6V5h4c0.9,0,1.6,0.7,1.6,1.6L41.4,18.4z M42.9,10.9h4
		c0.4-0.1,0.7-0.4,0.6-0.8c0-0.3-0.3-0.6-0.6-0.6h-4.1V6.1h6.4c0.9,0,1.6,0.7,1.6,1.6v9.5c0,0.9-0.7,1.6-1.6,1.6h-6.4L42.9,10.9z"/>
	<path d="M29.1,7H17.3c-0.4,0-0.7,0.3-0.7,0.7c0,0.4,0.3,0.7,0.7,0.7h11.8c0.4,0,0.7-0.3,0.7-0.7C29.9,7.4,29.5,7,29.1,7z"/>
	<path d="M29.1,11.8H17.3c-0.4,0-0.7,0.3-0.7,0.7s0.3,0.7,0.7,0.7h11.8c0.4,0,0.7-0.3,0.7-0.7S29.5,11.8,29.1,11.8z"/>
	<path d="M29.1,16.5H17.3c-0.4,0-0.7,0.3-0.7,0.7s0.3,0.7,0.7,0.7h11.8c0.4,0,0.7-0.3,0.7-0.7S29.5,16.5,29.1,16.5z"/>
</g>
</svg>
